<svg width="139" height="124" viewBox="0 0 139 124" fill="none" xmlns="http://www.w3.org/2000/svg">
<mask id="path-1-inside-1_257_70" fill="white">
<path d="M57.376 7C62.7646 -2.33324 76.2354 -2.3333 81.624 7L136.617 102.25C142.005 111.583 135.269 123.25 124.492 123.25H14.5078C3.73067 123.25 -3.00561 111.583 2.38281 102.25L57.376 7Z"/>
</mask>
<path d="M57.376 7L48.7158 1.99994L48.7157 1.99996L57.376 7ZM81.624 7L72.9638 12L72.9638 12L81.624 7ZM136.617 102.25L145.278 97.2502L145.277 97.25L136.617 102.25ZM2.38281 102.25L-6.27742 97.25L-6.27751 97.2501L2.38281 102.25ZM57.376 7L66.0362 12.0001C67.5759 9.33331 71.4242 9.33346 72.9638 12L81.624 7L90.2843 2C81.0466 -14.0001 57.9534 -13.9998 48.7158 1.99994L57.376 7ZM81.624 7L72.9638 12L127.957 107.25L136.617 102.25L145.277 97.25L90.2843 1.99996L81.624 7ZM136.617 102.25L127.957 107.25C129.496 109.916 127.572 113.25 124.492 113.25V123.25V133.25C142.967 133.25 154.515 113.25 145.278 97.2502L136.617 102.25ZM124.492 123.25V113.25H14.5078V123.25V133.25H124.492V123.25ZM14.5078 123.25V113.25C11.4281 113.25 9.50386 109.916 11.0431 107.25L2.38281 102.25L-6.27751 97.2501C-15.5151 113.251 -3.96674 133.25 14.5078 133.25V123.25ZM2.38281 102.25L11.043 107.25L66.0362 12L57.376 7L48.7157 1.99996L-6.27742 97.25L2.38281 102.25Z" fill="#FF0000" mask="url(#path-1-inside-1_257_70)"/>
<path d="M76.6167 31.5L73.7476 83.5H65.3892L68.2583 31.5H76.6167Z" fill="#FF0000" stroke="#FF0000"/>
<path d="M72.7559 83.5L69.8867 31.5H61.5283L64.3975 83.5H72.7559Z" fill="#FF0000" stroke="#FF0000"/>
<circle cx="69" cy="99" r="9.5" fill="#FF0000" stroke="#FF0000"/>
</svg>
