<svg width="42" height="42" viewBox="0 0 42 42" fill="none" xmlns="http://www.w3.org/2000/svg">
<mask id="path-1-inside-1_151_58" fill="white">
<path d="M41.6895 41.6895H0V0H41.6895V41.6895ZM11.9111 11.9111V30.9697H30.9697V11.9111H11.9111Z"/>
</mask>
<path d="M41.6895 41.6895H0V0H41.6895V41.6895ZM11.9111 11.9111V30.9697H30.9697V11.9111H11.9111Z" fill="#D4D0C8"/>
<path d="M41.6895 41.6895V45.2629H45.2629V41.6895H41.6895ZM0 41.6895H-3.57341V45.2629H0V41.6895ZM0 0V-3.57341H-3.57341V0H0ZM41.6895 0H45.2629V-3.57341H41.6895V0ZM11.9111 11.9111V8.33773H8.33773V11.9111H11.9111ZM11.9111 30.9697H8.33773V34.5431H11.9111V30.9697ZM30.9697 30.9697V34.5431H34.5431V30.9697H30.9697ZM30.9697 11.9111H34.5431V8.33773H30.9697V11.9111ZM41.6895 41.6895V38.116H0V41.6895V45.2629H41.6895V41.6895ZM0 41.6895H3.57341V0H0H-3.57341V41.6895H0ZM0 0V3.57341H41.6895V0V-3.57341H0V0ZM41.6895 0H38.116V41.6895H41.6895H45.2629V0H41.6895ZM11.9111 11.9111H8.33773V30.9697H11.9111H15.4845V11.9111H11.9111ZM11.9111 30.9697V34.5431H30.9697V30.9697V27.3963H11.9111V30.9697ZM30.9697 30.9697H34.5431V11.9111H30.9697H27.3963V30.9697H30.9697ZM30.9697 11.9111V8.33773H11.9111V11.9111V15.4845H30.9697V11.9111Z" fill="#394345" mask="url(#path-1-inside-1_151_58)"/>
<line x1="39.7867" y1="3" x2="39.7867" y2="42" stroke="#ECE6E6" stroke-width="3.57341"/>
<line x1="42" y1="39.7867" x2="3" y2="39.7867" stroke="#ECE6E6" stroke-width="3.57341"/>
<line x1="9.7867" y1="8" x2="9.7867" y2="35" stroke="#ECE6E6" stroke-width="3.57341"/>
<line x1="35" y1="9.7867" x2="9" y2="9.7867" stroke="#ECE6E6" stroke-width="3.57341"/>
</svg>
