<svg width="824" height="582" viewBox="0 0 824 582" fill="none" xmlns="http://www.w3.org/2000/svg">
<rect x="18.5101" y="38.8114" width="786.98" height="524.255" fill="black" stroke="#434343" stroke-width="37.0203"/>
<rect x="18.5101" y="18.5101" width="786.98" height="524.255" fill="#1A1F37" stroke="#D0D0D0" stroke-width="37.0203"/>
<rect x="108.075" y="67.4725" width="108.672" height="39.4087" stroke="white" stroke-width="3.58261"/>
<rect x="440.064" y="67.4725" width="108.672" height="39.4087" stroke="white" stroke-width="3.58261"/>
<rect x="274.07" y="67.4725" width="108.672" height="39.4087" stroke="white" stroke-width="3.58261"/>
<rect x="606.058" y="67.4725" width="108.672" height="39.4087" stroke="white" stroke-width="3.58261"/>
<rect x="388.367" y="361.215" width="48.3966" height="48.3966" fill="#D9D9D9"/>
<rect x="670.451" y="267.187" width="48.3966" height="48.3966" fill="#D9D9D9"/>
<rect x="576.423" y="361.215" width="48.3966" height="48.3966" fill="#D9D9D9"/>
<rect x="670.451" y="361.215" width="48.3966" height="48.3966" fill="#D9D9D9"/>
<rect x="482.395" y="361.215" width="48.3966" height="48.3966" fill="#D9D9D9"/>
<rect x="388.367" y="173.159" width="48.3966" height="48.3966" fill="#D9D9D9"/>
<rect x="294.34" y="361.215" width="48.3966" height="48.3966" fill="#D9D9D9"/>
<rect x="200.312" y="361.215" width="48.3966" height="48.3966" fill="#D9D9D9"/>
<rect x="106.284" y="361.215" width="48.3966" height="48.3966" fill="#D9D9D9"/>
<rect x="106.284" y="267.187" width="48.3966" height="48.3966" fill="#D9D9D9"/>
<rect x="107.667" y="173.159" width="48.3966" height="48.3966" fill="#D9D9D9"/>
<rect x="482.395" y="173.159" width="48.3966" height="48.3966" fill="#D9D9D9"/>
<rect x="200.312" y="267.187" width="48.3966" height="48.3966" fill="#D9D9D9"/>
<rect x="201.695" y="173.159" width="48.3966" height="48.3966" fill="#D9D9D9"/>
<rect x="576.423" y="173.159" width="48.3966" height="48.3966" fill="#D9D9D9"/>
<rect x="294.34" y="267.187" width="48.3966" height="48.3966" fill="#D9D9D9"/>
<rect x="295.722" y="173.159" width="48.3966" height="48.3966" fill="#D9D9D9"/>
<rect x="670.451" y="173.159" width="48.3966" height="48.3966" fill="#D9D9D9"/>
<rect x="482.395" y="269.953" width="48.3966" height="48.3966" fill="#D9D9D9"/>
<rect x="576.423" y="269.953" width="48.3966" height="48.3966" fill="#D9D9D9"/>
<rect x="369.826" y="251.411" width="86.8625" height="86.8625" stroke="white" stroke-width="7.16522"/>
<rect x="37.0203" y="533.809" width="17.913" height="17.913" fill="#FF0000"/>
<rect x="66.8754" y="533.809" width="17.913" height="17.913" fill="#38AA1B"/>
<rect x="354.678" y="533.809" width="114.643" height="19.1072" stroke="#838383" stroke-width="4.77681"/>
<path d="M398.705 539.521H400.245L403.593 547.078H404.443V548.197H399.965V547.078H401.084L400.587 545.958H397.425L396.959 547.078H399.125V548.197H394.647V547.078H395.56L398.705 539.521ZM397.89 544.839H400.091L399.223 542.879C399.111 542.623 399.022 542.371 398.957 542.124C398.866 542.445 398.782 542.697 398.705 542.879L397.89 544.839ZM407.382 541.48C407.382 541.701 407.433 541.901 407.536 542.078C407.638 542.253 407.776 542.4 407.949 542.519C408.121 542.638 408.319 542.748 408.543 542.848C408.767 542.948 409.003 543.044 409.25 543.135C409.497 543.223 409.745 543.317 409.992 543.415C410.239 543.51 410.475 543.626 410.699 543.761C410.922 543.894 411.121 544.044 411.293 544.212C411.466 544.378 411.604 544.587 411.706 544.839C411.809 545.088 411.86 545.368 411.86 545.678C411.86 546.058 411.776 546.413 411.608 546.742C411.44 547.071 411.209 547.353 410.915 547.589C410.624 547.822 410.269 548.005 409.852 548.138C409.434 548.271 408.984 548.337 408.501 548.337C408.315 548.337 408.118 548.324 407.91 548.299C407.705 548.275 407.487 548.235 407.256 548.176C407.027 548.118 406.807 548.047 406.595 547.963C406.382 547.879 406.178 547.773 405.982 547.644C405.789 547.514 405.62 547.369 405.475 547.211C405.33 547.052 405.215 546.865 405.129 546.651C405.045 546.434 405.003 546.203 405.003 545.958C405.003 545.648 405.111 545.384 405.328 545.167C405.547 544.948 405.812 544.839 406.122 544.839C406.433 544.839 406.696 544.948 406.913 545.167C407.132 545.384 407.242 545.648 407.242 545.958C407.242 546.159 407.193 546.344 407.095 546.514C406.999 546.682 406.869 546.816 406.703 546.917C407.053 547.117 407.512 547.218 408.082 547.218C408.588 547.218 408.97 547.14 409.229 546.983C409.49 546.827 409.621 546.579 409.621 546.238C409.621 546.016 409.57 545.818 409.467 545.643C409.364 545.466 409.227 545.318 409.054 545.199C408.882 545.08 408.683 544.97 408.459 544.87C408.235 544.77 408 544.675 407.753 544.587C407.505 544.496 407.258 544.402 407.011 544.307C406.764 544.209 406.528 544.093 406.304 543.96C406.08 543.825 405.882 543.675 405.709 543.509C405.537 543.341 405.399 543.132 405.297 542.883C405.194 542.631 405.143 542.35 405.143 542.04C405.143 541.657 405.219 541.303 405.37 540.976C405.524 540.647 405.739 540.366 406.014 540.133C406.291 539.897 406.632 539.713 407.035 539.58C407.439 539.447 407.881 539.381 408.361 539.381C408.548 539.381 408.742 539.394 408.942 539.419C409.145 539.442 409.356 539.483 409.575 539.542C409.797 539.6 410.009 539.671 410.212 539.755C410.415 539.839 410.609 539.946 410.793 540.077C410.98 540.205 411.141 540.349 411.276 540.507C411.411 540.666 411.518 540.852 411.598 541.067C411.679 541.282 411.72 541.513 411.72 541.76C411.72 542.07 411.611 542.335 411.391 542.554C411.174 542.771 410.911 542.879 410.601 542.879C410.29 542.879 410.026 542.771 409.806 542.554C409.589 542.335 409.481 542.07 409.481 541.76C409.481 541.552 409.533 541.362 409.638 541.189C409.743 541.015 409.882 540.878 410.055 540.78C409.745 540.594 409.32 540.5 408.781 540.5C408.289 540.5 407.932 540.577 407.711 540.731C407.491 540.883 407.382 541.132 407.382 541.48ZM415.149 541.48C415.149 541.701 415.2 541.901 415.303 542.078C415.405 542.253 415.543 542.4 415.716 542.519C415.888 542.638 416.086 542.748 416.31 542.848C416.534 542.948 416.77 543.044 417.017 543.135C417.264 543.223 417.512 543.317 417.759 543.415C418.006 543.51 418.242 543.626 418.466 543.761C418.689 543.894 418.888 544.044 419.06 544.212C419.233 544.378 419.371 544.587 419.473 544.839C419.576 545.088 419.627 545.368 419.627 545.678C419.627 546.058 419.543 546.413 419.375 546.742C419.207 547.071 418.976 547.353 418.682 547.589C418.391 547.822 418.036 548.005 417.619 548.138C417.201 548.271 416.751 548.337 416.268 548.337C416.082 548.337 415.885 548.324 415.677 548.299C415.472 548.275 415.254 548.235 415.023 548.176C414.794 548.118 414.574 548.047 414.362 547.963C414.149 547.879 413.945 547.773 413.749 547.644C413.556 547.514 413.387 547.369 413.242 547.211C413.097 547.052 412.982 546.865 412.896 546.651C412.812 546.434 412.77 546.203 412.77 545.958C412.77 545.648 412.878 545.384 413.095 545.167C413.314 544.948 413.579 544.839 413.889 544.839C414.2 544.839 414.463 544.948 414.68 545.167C414.899 545.384 415.009 545.648 415.009 545.958C415.009 546.159 414.96 546.344 414.862 546.514C414.766 546.682 414.636 546.816 414.47 546.917C414.82 547.117 415.279 547.218 415.849 547.218C416.355 547.218 416.737 547.14 416.996 546.983C417.257 546.827 417.388 546.579 417.388 546.238C417.388 546.016 417.337 545.818 417.234 545.643C417.131 545.466 416.994 545.318 416.821 545.199C416.649 545.08 416.45 544.97 416.226 544.87C416.002 544.77 415.767 544.675 415.52 544.587C415.272 544.496 415.025 544.402 414.778 544.307C414.531 544.209 414.295 544.093 414.071 543.96C413.847 543.825 413.649 543.675 413.476 543.509C413.304 543.341 413.166 543.132 413.064 542.883C412.961 542.631 412.91 542.35 412.91 542.04C412.91 541.657 412.985 541.303 413.137 540.976C413.291 540.647 413.506 540.366 413.781 540.133C414.058 539.897 414.399 539.713 414.802 539.58C415.206 539.447 415.648 539.381 416.128 539.381C416.315 539.381 416.509 539.394 416.709 539.419C416.912 539.442 417.123 539.483 417.342 539.542C417.564 539.6 417.776 539.671 417.979 539.755C418.182 539.839 418.376 539.946 418.56 540.077C418.747 540.205 418.908 540.349 419.043 540.507C419.178 540.666 419.285 540.852 419.365 541.067C419.446 541.282 419.487 541.513 419.487 541.76C419.487 542.07 419.378 542.335 419.158 542.554C418.941 542.771 418.678 542.879 418.368 542.879C418.057 542.879 417.793 542.771 417.573 542.554C417.356 542.335 417.248 542.07 417.248 541.76C417.248 541.552 417.3 541.362 417.405 541.189C417.51 541.015 417.649 540.878 417.822 540.78C417.512 540.594 417.087 540.5 416.548 540.5C416.056 540.5 415.699 540.577 415.478 540.731C415.258 540.883 415.149 541.132 415.149 541.48ZM424.805 548.197H420.327V547.078H421.446V540.64H420.327V539.521H424.805C425.307 539.521 425.78 539.577 426.226 539.689C426.671 539.798 427.065 539.952 427.408 540.15C427.753 540.346 428.062 540.58 428.335 540.85C428.61 541.121 428.837 541.417 429.014 541.739C429.194 542.061 429.33 542.401 429.423 542.76C429.517 543.117 429.563 543.483 429.563 543.859C429.563 544.234 429.517 544.602 429.423 544.961C429.33 545.318 429.194 545.657 429.014 545.979C428.837 546.301 428.61 546.597 428.335 546.868C428.062 547.138 427.753 547.373 427.408 547.571C427.065 547.767 426.671 547.921 426.226 548.033C425.78 548.142 425.307 548.197 424.805 548.197ZM424.805 547.078C425.169 547.078 425.494 546.997 425.781 546.836C426.068 546.673 426.302 546.447 426.484 546.158C426.669 545.868 426.807 545.53 426.901 545.143C426.996 544.753 427.044 544.325 427.044 543.859C427.044 543.486 427.016 543.138 426.96 542.816C426.904 542.494 426.817 542.199 426.698 541.931C426.579 541.661 426.432 541.431 426.257 541.242C426.084 541.051 425.874 540.903 425.627 540.798C425.38 540.693 425.106 540.64 424.805 540.64H423.685V547.078H424.805Z" fill="#838383"/>
</svg>
