<svg width="115" height="29" viewBox="0 0 115 29" fill="none" xmlns="http://www.w3.org/2000/svg">
<rect width="115" height="29" fill="white"/>
<path d="M36.8433 19V11.2241H37.9541V17.8892H42.3975V19H36.8433ZM47.2168 17.8892V17.5205H47.5879V17.1494H47.9565V15.2964H47.5879V14.9277H47.2168V14.5566H45.3638V14.9277H44.9951V15.2964H44.624V17.1494H44.9951V17.5205H45.3638V17.8892H47.2168ZM44.624 19V18.6313H44.2529V18.2603H43.8843V17.8892H43.5132V14.5566H43.8843V14.1855H44.2529V13.8169H44.624V13.4458H47.9565V13.8169H48.3276V14.1855H48.6987V14.5566H49.0674V17.8892H48.6987V18.2603H48.3276V18.6313H47.9565V19H44.624ZM52.7759 17.8892V17.5205H53.147V17.1494H53.5156V16.7783H53.8867V16.4097H54.2578V16.0386H54.6265V14.5566H52.0337V14.9277H51.665V15.2964H51.2939V17.1494H51.665V17.5205H52.0337V17.8892H52.7759ZM50.1831 21.2217V20.1108H53.8867V19.7397H54.2578V19.3687H54.6265V17.8892H54.2578V18.2603H53.8867V18.6313H53.5156V19H51.2939V18.6313H50.9229V18.2603H50.5542V17.8892H50.1831V14.5566H50.5542V14.1855H50.9229V13.8169H51.2939V13.4458H55.7373V20.1108H55.3687V20.4795H54.9976V20.8506H54.6265V21.2217H50.1831ZM60.5566 17.8892V17.5205H60.9277V17.1494H61.2964V15.2964H60.9277V14.9277H60.5566V14.5566H58.7036V14.9277H58.335V15.2964H57.9639V17.1494H58.335V17.5205H58.7036V17.8892H60.5566ZM57.9639 19V18.6313H57.5928V18.2603H57.2241V17.8892H56.853V14.5566H57.2241V14.1855H57.5928V13.8169H57.9639V13.4458H61.2964V13.8169H61.6675V14.1855H62.0386V14.5566H62.4072V17.8892H62.0386V18.2603H61.6675V18.6313H61.2964V19H57.9639ZM63.5229 19V12.335H63.894V11.9639H64.2627V11.5928H64.6338V11.2241H66.8555V11.5928H67.2266V11.9639H67.5977V12.335H67.9663V13.4458H66.8555V13.0747H66.4868V12.7061H66.1157V12.335H65.3735V12.7061H65.0049V13.0747H64.6338V14.5566H67.9663V15.6675H64.6338V19H63.5229ZM69.0796 19V12.335H69.4507V11.9639H69.8193V11.5928H70.1904V11.2241H72.4121V11.5928H72.7832V11.9639H73.1543V12.335H73.5229V13.4458H72.4121V13.0747H72.0435V12.7061H71.6724V12.335H70.9302V12.7061H70.5615V13.0747H70.1904V14.5566H73.5229V15.6675H70.1904V19H69.0796Z" fill="#1A1F37"/>
<mask id="path-3-inside-1_164_158" fill="white">
<rect x="96.5854" y="4" width="12" height="21" rx="1"/>
</mask>
<rect x="96.5854" y="4" width="12" height="21" rx="1" fill="white" stroke="#FF0004" stroke-width="4" mask="url(#path-3-inside-1_164_158)"/>
<rect x="95.5854" y="12" width="4" height="6" fill="white"/>
<line x1="102.585" y1="15" x2="91.5854" y2="15" stroke="#FF0004" stroke-width="2" stroke-linecap="round"/>
<line x1="94.5854" y1="11.4142" x2="90.9997" y2="15" stroke="#FF0004" stroke-width="2" stroke-linecap="round"/>
<line x1="1" y1="-1" x2="6.07107" y2="-1" transform="matrix(-0.707107 -0.707107 -0.707107 0.707107 94.5854 20)" stroke="#FF0004" stroke-width="2" stroke-linecap="round"/>
</svg>
