<svg width="984" height="682" viewBox="0 0 984 682" fill="none" xmlns="http://www.w3.org/2000/svg">
<path d="M0 25C0 11.1929 11.1929 0 25 0H959C972.807 0 984 11.1929 984 25V122H0V25Z" fill="url(#paint0_linear_320_113)"/>
<rect x="870.638" y="20.6382" width="79.7237" height="79.7237" rx="9.2829" fill="url(#paint1_linear_320_113)" stroke="white" stroke-width="3.27632"/>
<g filter="url(#filter0_d_320_113)">
<path d="M74.375 39.125V45.375H49.375V57.875H68.125V64.125H49.375V76.625H74.375V82.875H43.125V39.125H74.375ZM86.875 64.125V82.875H80.625V48.5H86.875V54.75H90V51.625H93.125V48.5H105.625V51.625H108.75V54.75H111.875V61H105.625V57.875H102.5V54.75H96.25V57.875H93.125V61H90V64.125H86.875ZM124.375 64.125V82.875H118.125V48.5H124.375V54.75H127.5V51.625H130.625V48.5H143.125V51.625H146.25V54.75H149.375V61H143.125V57.875H140V54.75H133.75V57.875H130.625V61H127.5V64.125H124.375ZM165 76.625H177.5V73.5H180.625V57.875H177.5V54.75H165V57.875H161.875V73.5H165V76.625ZM161.875 82.875V79.75H158.75V76.625H155.625V54.75H158.75V51.625H161.875V48.5H180.625V51.625H183.75V54.75H186.875V76.625H183.75V79.75H180.625V82.875H161.875ZM199.375 64.125V82.875H193.125V48.5H199.375V54.75H202.5V51.625H205.625V48.5H218.125V51.625H221.25V54.75H224.375V61H218.125V57.875H215V54.75H208.75V57.875H205.625V61H202.5V64.125H199.375Z" fill="white"/>
</g>
<path d="M930.113 42.0254L892.024 80.1137" stroke="white" stroke-width="5"/>
<path d="M930.088 80.0889L892 42.0006" stroke="white" stroke-width="5"/>
<rect x="5" y="127" width="974" height="550" fill="#D9D9D9" stroke="#044ADC" stroke-width="10"/>
<path d="M327.402 325V323.525H325.918V322.041H324.443V320.557H322.959V298.34H324.443V296.855H325.918V295.371H327.402V293.896H340.732V295.371H342.217V296.855H343.701V298.34H345.176V302.783H340.732V301.299H339.258V299.824H337.773V298.34H330.361V299.824H328.887V301.299H327.402V317.598H328.887V319.082H330.361V320.557H337.773V319.082H339.258V317.598H340.732V316.113H345.176V320.557H343.701V322.041H342.217V323.525H340.732V325H327.402ZM354.082 325V323.525H352.598V322.041H351.123V320.557H349.639V293.896H354.082V317.598H355.566V319.082H357.041V320.557H362.969V325H354.082ZM367.412 325V302.783H371.855V325H367.412ZM367.412 298.34V293.896H371.855V298.34H367.412ZM380.762 325V323.525H379.277V322.041H377.803V320.557H376.318V307.227H377.803V305.742H379.277V304.268H380.762V302.783H394.092V304.268H395.576V305.742H397.061V307.227H398.535V311.67H394.092V310.186H392.617V308.711H391.133V307.227H383.721V308.711H382.246V310.186H380.762V317.598H382.246V319.082H383.721V320.557H391.133V319.082H392.617V317.598H394.092V316.113H398.535V320.557H397.061V322.041H395.576V323.525H394.092V325H380.762ZM402.998 325V293.896H407.441V311.67H408.926V310.186H410.4V308.711H411.885V307.227H413.369V305.742H414.854V304.268H416.328V302.783H420.771V307.227H419.297V308.711H417.812V310.186H416.328V311.67H414.854V313.154H413.369V314.639H414.854V316.113H416.328V317.598H417.812V319.082H419.297V320.557H420.771V325H416.328V323.525H414.854V322.041H413.369V320.557H411.885V319.082H410.4V317.598H408.926V316.113H407.441V325H402.998ZM437.803 307.227V298.34H439.287V296.855H440.762V295.371H442.246V293.896H446.689V298.34H445.205V299.824H443.73V301.299H442.246V307.227H437.803ZM446.689 307.227V298.34H448.174V296.855H449.658V295.371H451.133V293.896H455.576V298.34H454.102V299.824H452.617V301.299H451.133V307.227H446.689ZM460.029 325V298.34H461.514V296.855H462.988V295.371H464.473V293.896H482.246V298.34H467.432V299.824H465.957V301.299H464.473V307.227H477.803V311.67H464.473V325H460.029ZM486.709 325V302.783H491.152V325H486.709ZM486.709 298.34V293.896H491.152V298.34H486.709ZM495.615 325V320.557H497.1V319.082H498.574V317.598H500.059V316.113H501.543V314.639H503.018V313.154H501.543V311.67H500.059V310.186H498.574V308.711H497.1V307.227H495.615V302.783H500.059V304.268H501.543V305.742H503.018V307.227H504.502V308.711H505.986V310.186H507.471V308.711H508.945V307.227H510.43V305.742H511.914V304.268H513.389V302.783H517.832V307.227H516.357V308.711H514.873V310.186H513.389V311.67H511.914V313.154H510.43V314.639H511.914V316.113H513.389V317.598H514.873V319.082H516.357V320.557H517.832V325H513.389V323.525H511.914V322.041H510.43V320.557H508.945V319.082H507.471V317.598H505.986V319.082H504.502V320.557H503.018V322.041H501.543V323.525H500.059V325H495.615ZM517.861 307.227V302.783H519.336V301.299H520.811V299.824H522.295V293.896H526.738V302.783H525.254V304.268H523.779V305.742H522.295V307.227H517.861ZM526.738 307.227V302.783H528.223V301.299H529.697V299.824H531.182V293.896H535.625V302.783H534.15V304.268H532.666V305.742H531.182V307.227H526.738ZM557.09 325V323.525H555.605V322.041H554.131V320.557H552.646V293.896H557.09V302.783H570.42V307.227H557.09V317.598H558.574V319.082H560.049V320.557H563.018V319.082H564.502V317.598H565.977V311.67H570.42V320.557H568.945V322.041H567.461V323.525H565.977V325H557.09ZM589.688 320.557V319.082H591.172V317.598H592.646V310.186H591.172V308.711H589.688V307.227H582.275V308.711H580.801V310.186H579.316V317.598H580.801V319.082H582.275V320.557H589.688ZM579.316 325V323.525H577.832V322.041H576.357V320.557H574.873V307.227H576.357V305.742H577.832V304.268H579.316V302.783H592.646V304.268H594.131V305.742H595.615V307.227H597.09V320.557H595.615V322.041H594.131V323.525H592.646V325H579.316ZM614.131 325V298.34H615.615V296.855H617.09V295.371H618.574V293.896H627.461V295.371H628.945V296.855H630.43V298.34H631.904V302.783H627.461V301.299H625.986V299.824H624.502V298.34H621.533V299.824H620.059V301.299H618.574V307.227H631.904V311.67H618.574V325H614.131ZM636.357 325V302.783H640.801V325H636.357ZM636.357 298.34V293.896H640.801V298.34H636.357ZM645.264 325V320.557H646.748V319.082H648.223V317.598H649.707V316.113H651.191V314.639H652.666V313.154H651.191V311.67H649.707V310.186H648.223V308.711H646.748V307.227H645.264V302.783H649.707V304.268H651.191V305.742H652.666V307.227H654.15V308.711H655.635V310.186H657.119V308.711H658.594V307.227H660.078V305.742H661.562V304.268H663.037V302.783H667.48V307.227H666.006V308.711H664.521V310.186H663.037V311.67H661.562V313.154H660.078V314.639H661.562V316.113H663.037V317.598H664.521V319.082H666.006V320.557H667.48V325H663.037V323.525H661.562V322.041H660.078V320.557H658.594V319.082H657.119V317.598H655.635V319.082H654.15V320.557H652.666V322.041H651.191V323.525H649.707V325H645.264ZM702.295 311.67V310.186H700.82V308.711H699.336V307.227H691.924V308.711H690.449V310.186H688.965V311.67H702.295ZM688.965 325V323.525H687.48V322.041H686.006V320.557H684.521V307.227H686.006V305.742H687.48V304.268H688.965V302.783H702.295V304.268H703.779V305.742H705.264V307.227H706.738V316.113H688.965V317.598H690.449V319.082H691.924V320.557H706.738V325H688.965ZM711.201 325V302.783H715.645V307.227H717.129V305.742H718.604V304.268H720.088V302.783H728.975V304.268H730.459V305.742H731.943V307.227H733.418V311.67H728.975V310.186H727.5V308.711H726.016V307.227H723.057V308.711H721.572V310.186H720.088V311.67H718.604V313.154H717.129V314.639H715.645V325H711.201ZM737.881 325V302.783H742.324V307.227H743.809V305.742H745.283V304.268H746.768V302.783H755.654V304.268H757.139V305.742H758.623V307.227H760.098V311.67H755.654V310.186H754.18V308.711H752.695V307.227H749.736V308.711H748.252V310.186H746.768V311.67H745.283V313.154H743.809V314.639H742.324V325H737.881ZM779.375 320.557V319.082H780.859V317.598H782.334V310.186H780.859V308.711H779.375V307.227H771.963V308.711H770.488V310.186H769.004V317.598H770.488V319.082H771.963V320.557H779.375ZM769.004 325V323.525H767.52V322.041H766.045V320.557H764.561V307.227H766.045V305.742H767.52V304.268H769.004V302.783H782.334V304.268H783.818V305.742H785.303V307.227H786.777V320.557H785.303V322.041H783.818V323.525H782.334V325H769.004ZM791.24 325V302.783H795.684V307.227H797.168V305.742H798.643V304.268H800.127V302.783H809.014V304.268H810.498V305.742H811.982V307.227H813.457V311.67H809.014V310.186H807.539V308.711H806.055V307.227H803.096V308.711H801.611V310.186H800.127V311.67H798.643V313.154H797.168V314.639H795.684V325H791.24Z" fill="black"/>
<circle cx="162" cy="308" r="89" fill="#FF0000" stroke="#681818" stroke-width="10"/>
<path d="M203.946 349.943L119 264.998" stroke="white" stroke-width="10"/>
<path d="M204 265.052L119.054 349.998" stroke="white" stroke-width="10"/>
<defs>
<filter id="filter0_d_320_113" x="43.125" y="39.125" width="187.25" height="49.75" filterUnits="userSpaceOnUse" color-interpolation-filters="sRGB">
<feFlood flood-opacity="0" result="BackgroundImageFix"/>
<feColorMatrix in="SourceAlpha" type="matrix" values="0 0 0 0 0 0 0 0 0 0 0 0 0 0 0 0 0 0 127 0" result="hardAlpha"/>
<feOffset dx="6" dy="6"/>
<feComposite in2="hardAlpha" operator="out"/>
<feColorMatrix type="matrix" values="0 0 0 0 0 0 0 0 0 0 0 0 0 0 0 0 0 0 1 0"/>
<feBlend mode="normal" in2="BackgroundImageFix" result="effect1_dropShadow_320_113"/>
<feBlend mode="normal" in="SourceGraphic" in2="effect1_dropShadow_320_113" result="shape"/>
</filter>
<linearGradient id="paint0_linear_320_113" x1="492" y1="0" x2="492" y2="122" gradientUnits="userSpaceOnUse">
<stop offset="0.01" stop-color="#2552B2"/>
<stop offset="0.0101" stop-color="#308FFB"/>
<stop offset="0.120192" stop-color="#0253E7"/>
<stop offset="0.456731" stop-color="#0253E7"/>
<stop offset="0.870192" stop-color="#036AFD"/>
<stop offset="1" stop-color="#024CD7"/>
</linearGradient>
<linearGradient id="paint1_linear_320_113" x1="872.495" y1="23.6961" x2="948.068" y2="98.6145" gradientUnits="userSpaceOnUse">
<stop stop-color="#F2B1A0"/>
<stop offset="1" stop-color="#BF2800"/>
</linearGradient>
</defs>
</svg>
