<svg width="310" height="111" viewBox="0 0 310 111" fill="none" xmlns="http://www.w3.org/2000/svg">
<rect x="2.5011" y="3.41992" width="305" height="105" fill="#D9D9D9" stroke="black" stroke-width="5"/>
<mask id="path-2-inside-1_322_2" fill="white">
<path d="M5.0011 5.91992H305.001V105.919H5.0011V5.91992Z"/>
</mask>
<path d="M5.0011 5.91992H305.001V105.919H5.0011V5.91992Z" fill="#D9D9D9"/>
<path d="M5.0011 5.91992V0.919922H0.00109863V5.91992H5.0011ZM5.0011 5.91992V10.9199H305.001V5.91992V0.919922H5.0011V5.91992ZM5.0011 105.919H10.0011V5.91992H5.0011H0.00109863V105.919H5.0011Z" fill="white" mask="url(#path-2-inside-1_322_2)"/>
<mask id="path-4-inside-2_322_2" fill="white">
<path d="M10.0011 10.9199H305.001V105.92H10.0011V10.9199Z"/>
</mask>
<path d="M10.0011 10.9199H305.001V105.92H10.0011V10.9199Z" fill="#D9D9D9"/>
<path d="M305.001 105.92V110.92H310.001V105.92H305.001ZM305.001 10.9199H300.001V105.92H305.001H310.001V10.9199H305.001ZM305.001 105.92V100.92H10.0011V105.92V110.92H305.001V105.92Z" fill="#646464" mask="url(#path-4-inside-2_322_2)"/>
<path d="M138.594 43.8438V48.5312H119.844V57.9062H133.906V62.5938H119.844V76.6562H115.156V43.8438H138.594ZM147.969 76.6562V71.9688H152.656V48.5312H147.969V43.8438H162.031V48.5312H157.344V71.9688H162.031V76.6562H147.969ZM176.094 69.625V76.6562H171.406V67.2812H173.75V64.9375H176.094V62.5938H178.438V57.9062H176.094V55.5625H173.75V53.2188H171.406V43.8438H176.094V50.875H178.438V53.2188H180.781V55.5625H185.469V53.2188H187.812V50.875H190.156V43.8438H194.844V53.2188H192.5V55.5625H190.156V57.9062H187.812V62.5938H190.156V64.9375H192.5V67.2812H194.844V76.6562H190.156V69.625H187.812V67.2812H185.469V64.9375H180.781V67.2812H178.438V69.625H176.094Z" fill="black"/>
</svg>
