<svg width="273" height="273" viewBox="0 0 273 273" fill="none" xmlns="http://www.w3.org/2000/svg">
<path d="M189 136.5L110.25 181.966L110.25 91.0337L189 136.5Z" fill="white"/>
<path d="M263 136.5C263 153.112 259.728 169.562 253.371 184.909C247.014 200.257 237.696 214.202 225.949 225.949C214.202 237.696 200.257 247.014 184.909 253.371C169.562 259.728 153.112 263 136.5 263C119.888 263 103.438 259.728 88.0905 253.371C72.7429 247.014 58.7976 237.696 47.051 225.949C35.3044 214.202 25.9865 200.257 19.6292 184.909C13.272 169.562 10 153.112 10 136.5C10 119.888 13.272 103.438 19.6292 88.0905C25.9865 72.7428 35.3044 58.7976 47.051 47.051C58.7976 35.3044 72.7429 25.9865 88.0906 19.6292C103.438 13.272 119.888 10 136.5 10C153.112 10 169.562 13.272 184.909 19.6292C200.257 25.9865 214.202 35.3044 225.949 47.051C237.696 58.7976 247.014 72.7429 253.371 88.0906C259.728 103.438 263 119.888 263 136.5L263 136.5Z" stroke="white" stroke-width="20"/>
</svg>
